<?xml version="1.0" encoding="iso-8859-1"?>
<svg version="1.1" xmlns="http://www.w3.org/2000/svg" xmlns:xlink="http://www.w3.org/1999/xlink" x="0px" y="0px" viewBox="0 0 511.189 511.189">
  <g transform="matrix(1.25 0 0 -1.25 0 45)" style="fill:#40596B;">
    <path d="M291.886-90.348L213.015,25.876c-6.838,10.069-17.727,9.865-24.201-0.421L116.11-89.927
    c-6.474-10.286-2.048-18.705,9.842-18.705h21.311v-40.118c0-12.561,10.194-22.756,22.756-22.756h68.267
    c12.584,0,22.756,10.194,22.756,22.756v40.118h21.606C294.548-108.632,298.735-100.417,291.886-90.348"/>
    <path d="M40.892-234.902H15.713C4.619-234.902,0-226.801,0-218.962c0,8.078,5.78,15.929,15.713,15.929
    h84.981c9.944,0,15.724-7.851,15.724-15.929c0-7.839-4.619-15.94-15.724-15.94H75.526V-350.83
    c0-11.56-7.384-18.022-17.317-18.022s-17.317,6.463-17.317,18.022L40.892-234.902z"/>
    <path d="M240.447-285.249c0,27.944-14.552,53.134-43.418,53.134c-28.877,0-43.429-25.19-43.429-53.134
    c0-28.171,14.097-53.111,43.429-53.111S240.447-313.42,240.447-285.249 M117.578-285.249c0,48.037,32.324,85.003,79.451,85.003
    c46.41,0,79.44-38.127,79.44-85.003c0-47.798-32.097-85.003-79.44-85.003C150.141-370.252,117.578-333.047,117.578-285.249"/>
    <path d="M325.586-282.473h23.563c14.541,0,23.768,10.627,23.768,24.474
    c0,13.87-9.227,24.496-23.768,24.496h-23.563V-282.473z M290.93-221.044c0,10.866,6.474,18,18.034,18h40.858
    c33.963,0,59.13-22.153,59.13-55.182c0-33.712-26.089-54.738-57.731-54.738h-25.634v-37.877c0-11.548-7.384-18.022-17.306-18.022
    c-9.956,0-17.351,6.474-17.351,18.022V-221.044z"/>
  </g>
</svg>
